<svg width="38" height="38" viewBox="0 0 38 38" fill="none" xmlns="http://www.w3.org/2000/svg">
<g clip-path="url(#clip0_783_2508)">
<path d="M20.4 6.61905C20.4 5.62381 19.545 4.80952 18.5 4.80952H17.55V3.90476C17.55 3.40714 17.1225 3 16.6 3H12.8C12.2775 3 11.85 3.40714 11.85 3.90476V4.80952H10.9C9.855 4.80952 9 5.62381 9 6.61905V20.1905C9 21.1857 9.855 22 10.9 22H18.5C19.545 22 20.4 21.1857 20.4 20.1905H28V6.61905H20.4ZM18.5 18.381H16.6V16.5714H18.5V18.381ZM18.5 10.2381H16.6V8.42857H18.5V10.2381ZM22.3 18.381H20.4V16.5714H22.3V18.381ZM22.3 10.2381H20.4V8.42857H22.3V10.2381ZM26.1 18.381H24.2V16.5714H26.1V18.381ZM26.1 10.2381H24.2V8.42857H26.1V10.2381Z" fill="#98CDB3"/>
<path d="M9.85898 31.416V32.4121H1.75352V31.416H9.85898ZM2.09531 30.1465C4.02402 30.0244 4.92734 29.4482 5.07871 28.8086H2.53477V27.8418H5.18125V27.041H6.41172V27.8418H9.07773V28.8086H6.50937C6.65586 29.4482 7.5543 30.0244 9.49766 30.1465L9.1168 31.0938C7.48105 30.9717 6.35312 30.498 5.7916 29.7803C5.23496 30.498 4.10215 30.9717 2.47617 31.0938L2.09531 30.1465ZM2.65195 34.0625V33.0859H8.87266V35.8984H7.63242V34.0625H2.65195ZM18.0363 27.0117V32.2852H16.7961V30.1855H15.4094V29.1797H16.7961V27.0117H18.0363ZM10.4875 31.3086C11.9426 30.8203 12.6066 29.6582 12.6359 28.5449H10.8488V27.5488H15.673V28.5449H13.9055C13.9299 29.5801 14.5646 30.625 15.9465 31.084L15.3312 32.0605C14.3547 31.7432 13.676 31.0986 13.2902 30.3027C12.8996 31.2061 12.1867 31.9336 11.132 32.2949L10.4875 31.3086ZM11.9426 34.1992C11.9426 33.1201 13.1047 32.4854 14.9992 32.4805C16.8986 32.4854 18.0607 33.1201 18.0656 34.1992C18.0607 35.2783 16.8986 35.9082 14.9992 35.9082C13.1047 35.9082 11.9426 35.2783 11.9426 34.1992ZM13.1828 34.1992C13.1828 34.707 13.8225 34.9609 14.9992 34.9609C16.1809 34.9609 16.8205 34.707 16.8254 34.1992C16.8205 33.6865 16.1809 33.4326 14.9992 33.4375C13.8225 33.4326 13.1828 33.6865 13.1828 34.1992ZM26.3504 27.0117V30.4883H27.659V31.5137H26.3504V35.8984H25.1199V27.0117H26.3504ZM19.2898 29.3359V28.3398H21.3016V27.1484H22.5516V28.3398H24.5145V29.3359H19.2898ZM19.6512 31.9531C19.6463 30.7129 20.6131 29.8291 21.9266 29.834C23.2205 29.8291 24.1922 30.7129 24.1922 31.9531C24.1922 33.1934 23.2205 34.0674 21.9266 34.0723C20.6131 34.0674 19.6463 33.1934 19.6512 31.9531ZM20.8426 31.9531C20.8426 32.6416 21.2967 33.0518 21.9266 33.0469C22.5467 33.0518 23.0008 32.6416 23.0008 31.9531C23.0008 31.2695 22.5467 30.8496 21.9266 30.8398C21.2967 30.8496 20.8426 31.2695 20.8426 31.9531ZM35.602 27.0117V35.8984H34.3422V27.0117H35.602ZM28.1605 33.3789C30.4555 32.2949 31.4662 30.8887 31.6664 28.916H28.6391V27.9395H32.9359C32.9311 30.6348 31.9887 32.876 28.8148 34.375L28.1605 33.3789Z" fill="#98CDB3"/>
</g>
<defs>
<clipPath id="clip0_783_2508">
<rect width="38" height="38" fill="white"/>
</clipPath>
</defs>
</svg>
