<svg width="27" height="36" viewBox="0 0 27 36" fill="none" xmlns="http://www.w3.org/2000/svg">
<path d="M6 18C6 16.9391 6.42143 15.9217 7.17157 15.1716C7.92172 14.4214 8.93913 14 10 14H18C19.0609 14 20.0783 14.4214 20.8284 15.1716C21.5786 15.9217 22 16.9391 22 18C22 18.5304 21.7893 19.0391 21.4142 19.4142C21.0391 19.7893 20.5304 20 20 20H8C7.46957 20 6.96086 19.7893 6.58579 19.4142C6.21071 19.0391 6 18.5304 6 18Z" stroke="#71727A" stroke-width="1.5" stroke-linejoin="round"/>
<path d="M14 10C15.6569 10 17 8.65685 17 7C17 5.34315 15.6569 4 14 4C12.3431 4 11 5.34315 11 7C11 8.65685 12.3431 10 14 10Z" stroke="#71727A" stroke-width="1.5"/>
<path d="M8.78457 31.8281V32.8633H0.649805V31.8281H8.78457ZM1.28457 26.7891V25.793H8.10098V26.7891H6.85098V29.4844H8.06191V30.4609H1.32363V29.4844H2.51504V26.7891H1.28457ZM3.76504 29.4844H5.62051V26.7891H3.76504V29.4844ZM17.5771 31.8867V32.9121H9.44238V31.8867H12.8701V30.5488H10.3799V27.5605H15.4092V26.584H10.3701V25.5879H16.6396V28.5371H11.6299V29.5332H16.8447V30.5488H14.1104V31.8867H17.5771ZM25.6959 25.0117V29.5723H24.4459V25.0117H25.6959ZM18.3814 28.4199C18.6842 28.4199 19.0064 28.415 19.3385 28.4102V26.5059H18.6158V25.5586H23.4498V26.5059H22.7174V28.2783C23.0836 28.249 23.4449 28.2148 23.7916 28.1758L23.8502 29.0645C22.0826 29.3477 20.0611 29.3965 18.5182 29.3965L18.3814 28.4199ZM19.651 30.8906V29.9238H25.6959V32.2969H20.901V32.8535H25.94V33.8398H19.6705V31.4082H24.4654V30.8906H19.651ZM20.5299 28.3857C20.857 28.376 21.1842 28.3662 21.5162 28.3516V26.5059H20.5299V28.3857Z" fill="#71727A"/>
</svg>
