<svg width="20" height="36" viewBox="0 0 20 36" fill="none" xmlns="http://www.w3.org/2000/svg">
<path d="M5.33516 25.9297V28.2441H6.22383V25.1387H7.3957V33.4883H6.22383V29.2402H5.33516V31.6621H1.8V25.9297H5.33516ZM2.96211 30.6855H4.17305V26.916H2.96211V30.6855ZM8.05977 33.8984V25.0117H9.25117V33.8984H8.05977ZM14.6453 25.4707V26.457H11.8914V28.2539C13.4393 28.2441 14.3768 28.1758 15.4168 27.9609L15.5437 28.9277C14.3914 29.1963 13.3074 29.2256 11.3934 29.2207H10.6512V25.4707H14.6453ZM11.491 30.7832V29.7969H17.3895V32.248H12.7312V32.8047H17.6434V33.8008H11.5105V31.3105H16.1492V30.7832H11.491ZM16.1395 29.4355V25.0117H17.3895V26.6914H18.5906V27.707H17.3895V29.4355H16.1395Z" fill="#71727A"/>
<path d="M17.75 12.0996C17.75 16.2416 14.392 19.5996 10.25 19.5996C6.108 19.5996 2.75 16.2416 2.75 12.0996C2.75 10.8356 3.0625 9.64461 3.615 8.59961C4.13338 7.61841 4.86273 6.76426 5.75061 6.09857C6.63849 5.43288 7.66283 4.97218 8.75 4.74961C9.235 4.65111 9.7365 4.59961 10.25 4.59961C10.7635 4.59961 11.265 4.65111 11.75 4.74961C12.8372 4.97218 13.8615 5.43288 14.7494 6.09857C15.6373 6.76426 16.3666 7.61841 16.885 8.59961C17.4549 9.67812 17.7518 10.8798 17.75 12.0996Z" stroke="#71727A" stroke-width="1.5" stroke-linecap="round" stroke-linejoin="round"/>
<path d="M10.25 15.0996V8.59961L8.75 9.09961M10.25 15.0996H12.25M10.25 15.0996H8.25" stroke="#71727A" stroke-width="1.5" stroke-linecap="round" stroke-linejoin="round"/>
<path d="M6.99998 1.00002C4.49994 1.00003 10.2666 4.00002 10.2666 4.00002C10.2666 4.00002 15.5 1.00002 14 1.00002H6.99998Z" fill="#71727A" stroke="#71727A"/>
</svg>
