<svg width="36" height="36" viewBox="0 0 36 36" fill="none" xmlns="http://www.w3.org/2000/svg">
<path d="M5.43125 26.1836C5.42637 27.4873 6.58359 28.8789 8.59531 29.2207L8.04844 30.2559C6.4957 29.9482 5.34824 29.0742 4.77207 27.9365C4.18613 29.0645 3.03379 29.9434 1.4957 30.2559L0.958593 29.2207C2.93613 28.8691 4.09336 27.4727 4.10312 26.1836V25.5391H5.43125V26.1836ZM0.753515 32.8047V31.7793H8.88828V32.8047H0.753515ZM16.7922 29.6016V30.5879H10.5031V25.666H16.7238V26.6719H11.7727V27.6094H16.5187V28.5859H11.7727V29.6016H16.7922ZM9.54609 32.8633V31.8477H17.6809V32.8633H9.54609ZM21.7371 25.9004V29.2695H19.784V30.7832C20.6531 30.7734 21.4686 30.7295 22.3914 30.5586L22.4988 31.5742C21.3318 31.7891 20.3357 31.8086 19.2176 31.8184H18.5926V28.2832H20.5359V26.8867H18.5828V25.9004H21.7371ZM22.1082 29.0547V28.0488H23.0164V25.1777H24.1785V33.4688H23.0164V29.0547H22.1082ZM24.8426 33.8984V25.0117H26.0242V33.8984H24.8426ZM32.4047 25.9395V26.9258H30.5883C30.6176 27.834 31.3012 28.7471 32.727 29.123L32.1508 30.0801C31.1254 29.8164 30.4027 29.2451 29.9877 28.5078C29.5922 29.3281 28.8646 29.9824 27.8051 30.2754L27.2094 29.3086C28.6254 28.9131 29.2992 27.9121 29.3285 26.9258H27.5121V25.9395H29.3285V25.0215H30.598V25.9395H32.4047ZM28.4887 32.209C28.4838 31.1445 29.6508 30.5244 31.5453 30.5195C33.4252 30.5244 34.5922 31.1445 34.602 32.209C34.5922 33.2832 33.4252 33.9033 31.5453 33.8984C29.6508 33.9033 28.4838 33.2832 28.4887 32.209ZM29.7387 32.209C29.7387 32.7021 30.349 32.9512 31.5453 32.9512C32.7318 32.9512 33.3666 32.7021 33.3715 32.209C33.3666 31.7354 32.7318 31.4814 31.5453 31.4863C30.349 31.4814 29.7387 31.7354 29.7387 32.209ZM33.3227 30.3828V25.0215H34.5727V30.3828H33.3227Z" fill="#98CDB3"/>
<path fill-rule="evenodd" clip-rule="evenodd" d="M24.0858 19.9317H22.3025C21.2812 19.9076 20.4934 19.1059 20.4934 18.1068V15.2558C20.4934 14.9138 20.2088 14.6358 19.8594 14.6358H17.1846C16.8426 14.6376 16.5599 14.9166 16.5599 15.2558V18.0975C16.5599 18.167 16.5506 18.2337 16.5312 18.2968C16.4311 19.2143 15.647 19.9317 14.697 19.9317H12.9138C10.7552 19.9317 8.99976 18.1902 8.99976 16.0501V7.97374C9.00902 7.05248 9.43351 6.20906 10.1666 5.65389L16.2235 0.792671C17.5572 -0.263914 19.4155 -0.263915 20.7464 0.790817L26.8468 5.65667C27.5632 6.20257 27.9877 7.04414 27.9998 7.95428V16.0501C27.9998 18.1902 26.2443 19.9317 24.0858 19.9317Z" fill="#98CDB3"/>
</svg>
