<svg width="22" height="36" viewBox="0 0 22 36" fill="none" xmlns="http://www.w3.org/2000/svg">
<path d="M6.85273 25.4707V26.457H4.09883V28.2539C5.64668 28.2441 6.58418 28.1758 7.62422 27.9609L7.75117 28.9277C6.59883 29.1963 5.51484 29.2256 3.60078 29.2207H2.85859V25.4707H6.85273ZM3.69844 30.7832V29.7969H9.59688V32.248H4.93867V32.8047H9.85078V33.8008H3.71797V31.3105H8.35664V30.7832H3.69844ZM8.34688 29.4355V25.0117H9.59688V26.6914H10.798V27.707H9.59688V29.4355H8.34688ZM14.698 26.2227C14.6932 27.4092 15.3035 28.5078 16.7293 28.9473L16.075 29.9238C15.118 29.5918 14.4686 28.9814 14.0926 28.1807C13.702 29.1084 12.9842 29.8359 11.9148 30.1973L11.2605 29.2012C12.7791 28.7129 13.4334 27.5215 13.4383 26.2812V25.4707H14.698V26.2227ZM12.7352 32.1797C12.7352 31.0859 13.8973 30.4463 15.7918 30.4512C17.6912 30.4463 18.8533 31.0859 18.8582 32.1797C18.8533 33.2783 17.6912 33.9033 15.7918 33.8984C13.8973 33.9033 12.7352 33.2783 12.7352 32.1797ZM13.9754 32.1797C13.9754 32.6729 14.615 32.9316 15.7918 32.9316C16.9734 32.9316 17.6131 32.6729 17.618 32.1797C17.6131 31.6719 16.9734 31.418 15.7918 31.418C14.615 31.418 13.9754 31.6719 13.9754 32.1797ZM15.9187 27.6582V26.6426H17.5887V25.0117H18.8289V30.2168H17.5887V27.6582H15.9187Z" fill="#98CDB3"/>
<path fill-rule="evenodd" clip-rule="evenodd" d="M5.39605 20.1796C4.94556 20.1796 4.49833 20.0378 4.11546 19.7586C3.45445 19.2743 3.13048 18.4747 3.27119 17.6697L4.03038 13.2957C4.05874 13.1331 4.00311 12.9684 3.88313 12.8528L0.658747 9.75495C0.065356 9.18664 -0.147348 8.34674 0.103534 7.56682C0.356597 6.77818 1.02634 6.21424 1.85207 6.09643L6.31123 5.45396C6.48357 5.42996 6.63192 5.32415 6.70609 5.17362L8.69897 1.19005C9.06657 0.455951 9.8083 0 10.6351 0C11.4619 0 12.2037 0.455951 12.5713 1.19005L14.5652 5.17253C14.6405 5.32415 14.7878 5.42996 14.959 5.45396L19.4182 6.09643C20.2439 6.21424 20.9137 6.77818 21.1667 7.56682C21.4176 8.34674 21.2038 9.18664 20.6104 9.75495L17.386 12.8528C17.266 12.9684 17.2115 13.1331 17.2399 13.2946L18.0002 17.6697C18.1398 18.4758 17.8158 19.2754 17.1537 19.7586C16.4829 20.2505 15.6091 20.3171 14.8685 19.9309L10.8838 17.8661C10.7278 17.7854 10.5413 17.7854 10.3853 17.8661L6.40067 19.932C6.08216 20.0978 5.73856 20.1796 5.39605 20.1796Z" fill="#98CDB3"/>
</svg>
