<svg width="36" height="36" viewBox="0 0 36 36" fill="none" xmlns="http://www.w3.org/2000/svg">
<path d="M19.4 3.61905C19.4 2.62381 18.545 1.80952 17.5 1.80952H16.55V0.904762C16.55 0.407143 16.1225 0 15.6 0H11.8C11.2775 0 10.85 0.407143 10.85 0.904762V1.80952H9.9C8.855 1.80952 8 2.62381 8 3.61905V17.1905C8 18.1857 8.855 19 9.9 19H17.5C18.545 19 19.4 18.1857 19.4 17.1905H27V3.61905H19.4ZM25.1 15.381H17.5V17.1905H9.9V3.61905H12.75V1.80952H14.65V3.61905H17.5V5.42857H25.1V15.381ZM14.65 12.6667H16.55V14.4762H14.65V12.6667ZM14.65 6.33333H16.55V8.14286H14.65V6.33333ZM18.45 12.6667H20.35V14.4762H18.45V12.6667ZM18.45 6.33333H20.35V8.14286H18.45V6.33333ZM22.25 12.6667H24.15V14.4762H22.25V12.6667ZM22.25 6.33333H24.15V8.14286H22.25V6.33333Z" fill="#71727A"/>
<path d="M8.85898 29.416V30.4121H0.753515V29.416H8.85898ZM1.09531 28.1465C3.02402 28.0244 3.92734 27.4482 4.07871 26.8086H1.53477V25.8418H4.18125V25.041H5.41172V25.8418H8.07773V26.8086H5.50937C5.65586 27.4482 6.5543 28.0244 8.49766 28.1465L8.1168 29.0938C6.48105 28.9717 5.35312 28.498 4.7916 27.7803C4.23496 28.498 3.10215 28.9717 1.47617 29.0938L1.09531 28.1465ZM1.65195 32.0625V31.0859H7.87266V33.8984H6.63242V32.0625H1.65195ZM17.0363 25.0117V30.2852H15.7961V28.1855H14.4094V27.1797H15.7961V25.0117H17.0363ZM9.4875 29.3086C10.9426 28.8203 11.6066 27.6582 11.6359 26.5449H9.84883V25.5488H14.673V26.5449H12.9055C12.9299 27.5801 13.5646 28.625 14.9465 29.084L14.3312 30.0605C13.3547 29.7432 12.676 29.0986 12.2902 28.3027C11.8996 29.2061 11.1867 29.9336 10.132 30.2949L9.4875 29.3086ZM10.9426 32.1992C10.9426 31.1201 12.1047 30.4854 13.9992 30.4805C15.8986 30.4854 17.0607 31.1201 17.0656 32.1992C17.0607 33.2783 15.8986 33.9082 13.9992 33.9082C12.1047 33.9082 10.9426 33.2783 10.9426 32.1992ZM12.1828 32.1992C12.1828 32.707 12.8225 32.9609 13.9992 32.9609C15.1809 32.9609 15.8205 32.707 15.8254 32.1992C15.8205 31.6865 15.1809 31.4326 13.9992 31.4375C12.8225 31.4326 12.1828 31.6865 12.1828 32.1992ZM25.3504 25.0117V28.4883H26.659V29.5137H25.3504V33.8984H24.1199V25.0117H25.3504ZM18.2898 27.3359V26.3398H20.3016V25.1484H21.5516V26.3398H23.5145V27.3359H18.2898ZM18.6512 29.9531C18.6463 28.7129 19.6131 27.8291 20.9266 27.834C22.2205 27.8291 23.1922 28.7129 23.1922 29.9531C23.1922 31.1934 22.2205 32.0674 20.9266 32.0723C19.6131 32.0674 18.6463 31.1934 18.6512 29.9531ZM19.8426 29.9531C19.8426 30.6416 20.2967 31.0518 20.9266 31.0469C21.5467 31.0518 22.0008 30.6416 22.0008 29.9531C22.0008 29.2695 21.5467 28.8496 20.9266 28.8398C20.2967 28.8496 19.8426 29.2695 19.8426 29.9531ZM34.602 25.0117V33.8984H33.3422V25.0117H34.602ZM27.1605 31.3789C29.4555 30.2949 30.4662 28.8887 30.6664 26.916H27.6391V25.9395H31.9359C31.9311 28.6348 30.9887 30.876 27.8148 32.375L27.1605 31.3789Z" fill="#71727A"/>
</svg>
