<svg width="20" height="24" viewBox="0 0 20 24" fill="none" xmlns="http://www.w3.org/2000/svg">
<path fill-rule="evenodd" clip-rule="evenodd" d="M7.91935 20.6585C8.47944 21.2823 9.19848 21.6251 9.94454 21.6251H9.94563C10.6949 21.6251 11.4172 21.2823 11.9784 20.6574C12.279 20.3254 12.7915 20.2984 13.1234 20.5979C13.4565 20.8974 13.4835 21.411 13.184 21.743C12.3103 22.7128 11.161 23.247 9.94563 23.247H9.94346C8.73138 23.2459 7.58417 22.7118 6.71376 21.7419C6.41425 21.4099 6.44128 20.8963 6.77431 20.5979C7.10733 20.2973 7.61985 20.3243 7.91935 20.6585ZM9.99839 0C14.8046 0 18.0332 3.7433 18.0332 7.239C18.0332 9.03713 18.4906 9.79941 18.9761 10.6082C19.4561 11.4062 20 12.3122 20 14.025C19.6226 18.4008 15.0543 18.7576 9.99839 18.7576C4.94244 18.7576 0.373062 18.4008 1.43118e-05 14.0942C-0.00321501 12.3122 0.540656 11.4062 1.02073 10.6082L1.19021 10.3229C1.6075 9.60571 1.96359 8.82558 1.96359 7.239C1.96359 3.7433 5.19221 0 9.99839 0ZM9.99839 1.62188C6.21941 1.62188 3.58547 4.58236 3.58547 7.239C3.58547 9.48693 2.96159 10.526 2.41015 11.4429C1.96791 12.1793 1.61867 12.761 1.61867 14.025C1.79924 16.0642 3.1454 17.1357 9.99839 17.1357C16.8135 17.1357 18.2019 16.0166 18.3814 13.9547C18.3781 12.761 18.0289 12.1793 17.5866 11.4429C17.0352 10.526 16.4113 9.48693 16.4113 7.239C16.4113 4.58236 13.7774 1.62188 9.99839 1.62188Z" fill="black"/>
</svg>
