<svg width="311" height="313" viewBox="0 0 311 313" fill="none" xmlns="http://www.w3.org/2000/svg">
<g filter="url(#filter0_d_942_2144)">
<path d="M132.841 6.18206C137.623 6.83048 142.492 6.31879 147.035 4.69019C152.508 2.72836 158.492 2.72836 163.965 4.69019C168.508 6.31879 173.377 6.83048 178.159 6.18206C183.92 5.40097 189.774 6.64519 194.719 9.70201C198.825 12.2396 203.48 13.7523 208.293 14.1124C214.091 14.5462 219.558 16.9803 223.76 20.9985C227.248 24.3342 231.487 26.7818 236.12 28.1347C241.701 29.7644 246.542 33.2819 249.817 38.0859C252.535 42.074 256.173 45.3495 260.423 47.6361C265.543 50.3905 269.547 54.8377 271.751 60.2175C273.581 64.6836 276.459 68.6439 280.141 71.7642C284.576 75.5229 287.568 80.7055 288.606 86.426C289.467 91.1749 291.458 95.6469 294.411 99.4645C297.968 104.063 299.817 109.755 299.642 115.566C299.497 120.39 300.515 125.178 302.61 129.526C305.133 134.764 305.758 140.716 304.379 146.364C303.235 151.052 303.235 155.948 304.379 160.636C305.758 166.284 305.133 172.236 302.61 177.473C300.515 181.822 299.497 186.61 299.642 191.434C299.817 197.245 297.968 202.937 294.411 207.535C291.458 211.353 289.467 215.825 288.606 220.574C287.568 226.295 284.576 231.477 280.141 235.236C276.459 238.356 273.581 242.316 271.751 246.782C269.547 252.162 265.543 256.61 260.423 259.364C256.173 261.65 252.535 264.926 249.817 268.914C246.542 273.718 241.701 277.236 236.12 278.865C231.487 280.218 227.248 282.666 223.76 286.001C219.558 290.02 214.091 292.454 208.293 292.888C203.48 293.248 198.825 294.76 194.719 297.298C189.774 300.355 183.92 301.599 178.159 300.818C173.377 300.17 168.508 300.681 163.965 302.31C158.492 304.272 152.508 304.272 147.035 302.31C142.492 300.681 137.623 300.17 132.841 300.818C127.08 301.599 121.226 300.355 116.281 297.298C112.175 294.76 107.52 293.248 102.707 292.888C96.9091 292.454 91.4422 290.02 87.2404 286.001C83.7524 282.666 79.513 280.218 74.8801 278.865C69.2994 277.236 64.4579 273.718 61.1834 268.914C58.4651 264.926 54.8273 261.65 50.577 259.364C45.457 256.61 41.4527 252.162 39.2486 246.782C37.4188 242.316 34.5415 238.356 30.8594 235.236C26.424 231.477 23.4318 226.295 22.3944 220.574C21.5332 215.825 19.5421 211.353 16.5893 207.535C13.0323 202.937 11.183 197.245 11.3576 191.434C11.5026 186.61 10.4848 181.822 8.39022 177.473C5.86708 172.236 5.24154 166.284 6.62055 160.636C7.76533 155.948 7.76533 151.052 6.62055 146.364C5.24154 140.716 5.86708 134.764 8.39022 129.526C10.4848 125.178 11.5026 120.39 11.3576 115.566C11.183 109.755 13.0323 104.063 16.5893 99.4645C19.5421 95.6469 21.5332 91.1749 22.3944 86.426C23.4318 80.7055 26.424 75.5229 30.8594 71.7642C34.5415 68.6439 37.4188 64.6836 39.2486 60.2175C41.4527 54.8377 45.457 50.3905 50.577 47.6361C54.8273 45.3495 58.4651 42.074 61.1834 38.0859C64.4579 33.2819 69.2994 29.7644 74.8801 28.1347C79.513 26.7818 83.7524 24.3342 87.2404 20.9985C91.4422 16.9803 96.9091 14.5462 102.707 14.1124C107.52 13.7523 112.175 12.2396 116.281 9.70201C121.226 6.64519 127.08 5.40097 132.841 6.18206Z" stroke="white" stroke-width="5" shape-rendering="crispEdges"/>
</g>
<defs>
<filter id="filter0_d_942_2144" x="0.40625" y="0.71875" width="310.188" height="311.562" filterUnits="userSpaceOnUse" color-interpolation-filters="sRGB">
<feFlood flood-opacity="0" result="BackgroundImageFix"/>
<feColorMatrix in="SourceAlpha" type="matrix" values="0 0 0 0 0 0 0 0 0 0 0 0 0 0 0 0 0 0 127 0" result="hardAlpha"/>
<feOffset dy="3"/>
<feGaussianBlur stdDeviation="1.5"/>
<feComposite in2="hardAlpha" operator="out"/>
<feColorMatrix type="matrix" values="0 0 0 0 0.372316 0 0 0 0 0.346373 0 0 0 0 0.346373 0 0 0 0.2 0"/>
<feBlend mode="normal" in2="BackgroundImageFix" result="effect1_dropShadow_942_2144"/>
<feBlend mode="normal" in="SourceGraphic" in2="effect1_dropShadow_942_2144" result="shape"/>
</filter>
</defs>
</svg>
