<svg width="288" height="288" viewBox="0 0 288 288" fill="none" xmlns="http://www.w3.org/2000/svg">
<path d="M123.127 4.88045C127.293 5.44536 131.535 4.99957 135.493 3.58072C140.993 1.6091 147.007 1.6091 152.507 3.58072C156.465 4.99957 160.707 5.44536 164.873 4.88045C170.663 4.09547 176.546 5.34589 181.516 8.41797C185.093 10.6288 189.149 11.9467 193.342 12.2604C199.168 12.6963 204.663 15.1425 208.885 19.1808C211.924 22.0869 215.618 24.2193 219.654 25.398C225.262 27.0358 230.128 30.5709 233.419 35.3989C235.787 38.8733 238.956 41.727 242.659 43.719C247.805 46.4872 251.829 50.9566 254.044 56.3633C255.638 60.2542 258.145 63.7044 261.353 66.4228C265.811 70.2003 268.818 75.4088 269.86 81.1579C270.611 85.2951 272.345 89.1912 274.918 92.5172C278.493 97.1389 280.351 102.859 280.176 108.699C280.049 112.902 280.936 117.073 282.761 120.862C285.297 126.125 285.925 132.107 284.539 137.783C283.542 141.868 283.542 146.132 284.539 150.217C285.925 155.893 285.297 161.875 282.761 167.138C280.936 170.927 280.049 175.098 280.176 179.301C280.351 185.141 278.493 190.861 274.918 195.483C272.345 198.809 270.611 202.705 269.86 206.842C268.818 212.591 265.811 217.8 261.353 221.577C258.145 224.296 255.638 227.746 254.044 231.637C251.829 237.043 247.805 241.513 242.659 244.281C238.956 246.273 235.787 249.127 233.419 252.601C230.128 257.429 225.262 260.964 219.654 262.602C215.618 263.781 211.924 265.913 208.885 268.819C204.663 272.857 199.168 275.304 193.342 275.74C189.149 276.053 185.093 277.371 181.516 279.582C176.546 282.654 170.663 283.905 164.873 283.12C160.707 282.555 156.465 283 152.507 284.419C147.007 286.391 140.993 286.391 135.493 284.419C131.535 283 127.293 282.555 123.127 283.12C117.337 283.905 111.454 282.654 106.484 279.582C102.907 277.371 98.8511 276.053 94.6581 275.74C88.8315 275.304 83.3373 272.857 79.1146 268.819C76.0757 265.913 72.3823 263.781 68.3462 262.602C62.7375 260.964 57.8719 257.429 54.5811 252.601C52.2129 249.127 49.0435 246.273 45.3406 244.281C40.1951 241.513 36.1708 237.043 33.9557 231.637C32.3616 227.746 29.8548 224.296 26.647 221.577C22.1894 217.8 19.1823 212.591 18.1397 206.842C17.3894 202.705 15.6548 198.809 13.0822 195.483C9.50746 190.861 7.64896 185.141 7.82444 179.301C7.95072 175.098 7.06402 170.927 5.2392 167.138C2.70346 161.875 2.0748 155.893 3.4607 150.217C4.45805 146.132 4.45805 141.868 3.4607 137.783C2.0748 132.107 2.70346 126.125 5.2392 120.862C7.06402 117.073 7.95072 112.902 7.82444 108.699C7.64896 102.859 9.50746 97.1389 13.0822 92.5172C15.6548 89.1912 17.3894 85.2952 18.1397 81.1579C19.1823 75.4088 22.1894 70.2003 26.647 66.4228C29.8548 63.7044 32.3616 60.2542 33.9557 56.3633C36.1708 50.9566 40.1951 46.4872 45.3406 43.719C49.0435 41.727 52.2129 38.8733 54.5811 35.3989C57.8719 30.5709 62.7375 27.0358 68.3461 25.398C72.3823 24.2193 76.0757 22.0869 79.1146 19.1808C83.3373 15.1425 88.8315 12.6963 94.6581 12.2604C98.8512 11.9467 102.907 10.6288 106.484 8.41798C111.454 5.3459 117.337 4.09547 123.127 4.88045Z" fill="#E5E5E5" stroke="white"/>
<g filter="url(#filter0_d_942_2166)">
<path d="M136.777 10.9826C142.156 9.05426 148.038 9.05426 153.417 10.9826V10.9826C157.141 12.3173 161.131 12.7367 165.05 12.2052V12.2052C170.713 11.4375 176.466 12.6604 181.327 15.665V15.665C184.692 17.7447 188.507 18.9845 192.452 19.2796V19.2796C198.15 19.706 203.524 22.0984 207.654 26.048V26.048C210.513 28.7818 213.987 30.7878 217.784 31.8965V31.8965C223.269 33.4984 228.028 36.9558 231.246 41.6777V41.6777C233.474 44.9461 236.456 47.6306 239.939 49.5045V49.5045C244.971 52.2119 248.907 56.5831 251.074 61.871V61.871C252.573 65.5311 254.932 68.7769 257.949 71.3341V71.3341C262.309 75.0286 265.25 80.1226 266.27 85.7453V85.7453C266.975 89.6373 268.607 93.3024 271.027 96.4312V96.4312C274.523 100.951 276.341 106.545 276.169 112.257V112.257C276.051 116.211 276.885 120.135 278.601 123.699V123.699C281.081 128.847 281.696 134.697 280.341 140.248V140.248C279.403 144.091 279.403 148.103 280.341 151.945V151.945C281.696 157.497 281.081 163.347 278.601 168.495V168.495C276.885 172.058 276.051 175.983 276.169 179.936V179.936C276.341 185.648 274.523 191.242 271.027 195.763V195.763C268.607 198.891 266.975 202.556 266.27 206.448V206.448C265.25 212.071 262.309 217.165 257.949 220.86V220.86C254.932 223.417 252.573 226.663 251.074 230.323V230.323C248.907 235.611 244.971 239.982 239.939 242.689V242.689C236.456 244.563 233.474 247.248 231.246 250.516V250.516C228.028 255.238 223.269 258.695 217.784 260.297V260.297C213.987 261.406 210.513 263.412 207.654 266.146V266.146C203.524 270.095 198.15 272.488 192.452 272.914V272.914C188.507 273.209 184.692 274.449 181.327 276.529V276.529C176.466 279.533 170.713 280.756 165.05 279.989V279.989C161.131 279.457 157.141 279.876 153.417 281.211V281.211C148.038 283.14 142.156 283.14 136.777 281.211V281.211C133.053 279.876 129.063 279.457 125.144 279.989V279.989C119.481 280.756 113.727 279.533 108.867 276.529V276.529C105.502 274.449 101.686 273.209 97.742 272.914V272.914C92.0434 272.488 86.6699 270.095 82.5399 266.146V266.146C79.6813 263.412 76.2068 261.406 72.41 260.297V260.297C66.9246 258.695 62.1659 255.238 58.9474 250.516V250.516C56.7196 247.248 53.7381 244.563 50.2548 242.689V242.689C45.2223 239.982 41.2864 235.611 39.12 230.323V230.323C37.6204 226.663 35.2623 223.417 32.2446 220.86V220.86C27.885 217.165 24.944 212.071 23.9243 206.448V206.448C23.2185 202.556 21.5867 198.891 19.1666 195.763V195.763C15.6704 191.242 13.8528 185.648 14.0244 179.936V179.936C14.1432 175.983 13.3091 172.058 11.5924 168.495V168.495C9.11242 163.347 8.49758 157.497 9.85301 151.945V151.945C10.7912 148.103 10.7912 144.091 9.85301 140.248V140.248C8.49758 134.697 9.11242 128.847 11.5924 123.699V123.699C13.3091 120.135 14.1432 116.211 14.0244 112.257V112.257C13.8528 106.545 15.6704 100.951 19.1666 96.4312V96.4312C21.5867 93.3024 23.2185 89.6373 23.9243 85.7453V85.7453C24.944 80.1226 27.885 75.0286 32.2446 71.3341V71.3341C35.2623 68.7769 37.6204 65.5311 39.12 61.871V61.871C41.2864 56.5831 45.2223 52.2119 50.2548 49.5045V49.5045C53.7381 47.6306 56.7196 44.9461 58.9474 41.6777V41.6777C62.1659 36.9558 66.9246 33.4984 72.41 31.8965V31.8965C76.2069 30.7878 79.6813 28.7818 82.5399 26.048V26.048C86.6699 22.0984 92.0434 19.706 97.7419 19.2796V19.2796C101.686 18.9845 105.502 17.7447 108.867 15.665V15.665C113.727 12.6604 119.481 11.4375 125.144 12.2052V12.2052C129.063 12.7367 133.053 12.3173 136.777 10.9826V10.9826Z" fill="white"/>
<path d="M124.808 14.6826C129.125 15.2679 133.519 14.806 137.62 13.3359C142.454 11.6031 147.74 11.6031 152.574 13.3359C156.675 14.806 161.069 15.2679 165.386 14.6826C170.475 13.9927 175.645 15.0916 180.013 17.7916C183.719 20.0821 187.921 21.4476 192.265 21.7726C197.386 22.1558 202.215 24.3057 205.926 27.8548C209.074 30.8658 212.901 33.0751 217.083 34.2963C222.012 35.7357 226.288 38.8426 229.181 43.0857C231.634 46.6855 234.918 49.6422 238.755 51.7062C243.277 54.139 246.814 58.067 248.76 62.8187C250.412 66.85 253.009 70.4248 256.333 73.2414C260.25 76.5612 262.893 81.1388 263.81 86.1914C264.587 90.478 266.384 94.5147 269.05 97.9607C272.191 102.023 273.825 107.05 273.671 112.182C273.54 116.537 274.458 120.859 276.349 124.784C278.578 129.41 279.13 134.667 277.912 139.655C276.879 143.888 276.879 148.306 277.912 152.538C279.13 157.527 278.578 162.784 276.349 167.41C274.458 171.335 273.54 175.657 273.671 180.011C273.825 185.144 272.191 190.171 269.05 194.233C266.384 197.679 264.587 201.716 263.81 206.002C262.893 211.055 260.25 215.633 256.333 218.952C253.009 221.769 250.412 225.344 248.76 229.375C246.814 234.127 243.277 238.055 238.755 240.488C234.918 242.552 231.634 245.508 229.181 249.108C226.288 253.351 222.012 256.458 217.083 257.897C212.901 259.119 209.074 261.328 205.926 264.339C202.215 267.888 197.386 270.038 192.265 270.421C187.921 270.746 183.719 272.112 180.013 274.402C175.645 277.102 170.475 278.201 165.386 277.511C161.069 276.926 156.675 277.388 152.574 278.858C147.74 280.591 142.454 280.591 137.62 278.858C133.519 277.388 129.125 276.926 124.808 277.511C119.719 278.201 114.549 277.102 110.181 274.402C106.475 272.112 102.273 270.746 97.9285 270.421C92.8077 270.038 87.979 267.888 84.2678 264.339C81.1193 261.328 77.2926 259.119 73.1107 257.897C68.1815 256.458 63.9053 253.351 61.0132 249.108C58.5595 245.508 55.2757 242.552 51.4392 240.488C46.917 238.055 43.3801 234.127 41.4334 229.375C39.7817 225.344 37.1845 221.769 33.8609 218.952C29.9433 215.633 27.3005 211.055 26.3842 206.002C25.6068 201.716 23.8095 197.679 21.1441 194.233C18.0024 190.171 16.369 185.144 16.5233 180.011C16.6541 175.657 15.7354 171.335 13.8447 167.41C11.6162 162.784 11.0637 157.527 12.2817 152.538C13.315 148.306 13.315 143.888 12.2817 139.655C11.0637 134.667 11.6162 129.41 13.8447 124.784C15.7354 120.859 16.6541 116.537 16.5233 112.182C16.369 107.05 18.0024 102.023 21.1441 97.9607C23.8095 94.5147 25.6068 90.478 26.3842 86.1914C27.3005 81.1388 29.9433 76.5612 33.8609 73.2414C37.1845 70.4248 39.7817 66.85 41.4334 62.8187C43.3801 58.067 46.917 54.139 51.4392 51.7062C55.2757 49.6422 58.5595 46.6855 61.0131 43.0857C63.9053 38.8426 68.1815 35.7357 73.1107 34.2963C77.2926 33.0751 81.1193 30.8658 84.2678 27.8548C87.979 24.3057 92.8077 22.1558 97.9285 21.7726C102.273 21.4476 106.475 20.0821 110.181 17.7916C114.549 15.0916 119.719 13.9927 124.808 14.6826Z" stroke="white" stroke-width="5"/>
</g>
<defs>
<filter id="filter0_d_942_2166" x="6.14844" y="3.53711" width="277.895" height="279.121" filterUnits="userSpaceOnUse" color-interpolation-filters="sRGB">
<feFlood flood-opacity="0" result="BackgroundImageFix"/>
<feColorMatrix in="SourceAlpha" type="matrix" values="0 0 0 0 0 0 0 0 0 0 0 0 0 0 0 0 0 0 127 0" result="hardAlpha"/>
<feOffset dy="-3"/>
<feGaussianBlur stdDeviation="1.5"/>
<feComposite in2="hardAlpha" operator="out"/>
<feColorMatrix type="matrix" values="0 0 0 0 0.372316 0 0 0 0 0.346373 0 0 0 0 0.346373 0 0 0 0.2 0"/>
<feBlend mode="normal" in2="BackgroundImageFix" result="effect1_dropShadow_942_2166"/>
<feBlend mode="normal" in="SourceGraphic" in2="effect1_dropShadow_942_2166" result="shape"/>
</filter>
</defs>
</svg>
