<svg width="103" height="23" viewBox="0 0 103 23" fill="none" xmlns="http://www.w3.org/2000/svg">
<path d="M0.966797 4.42188V0.789062H18.3398V4.42188H11.8359V22H7.4707V4.42188H0.966797Z" fill="#98CDB3"/>
<path d="M31.1719 15.2324V6.0918H35.5078V22H31.3477V19.1289H31.1719C30.4541 20.9746 28.7402 22.2051 26.3379 22.2051C23.1592 22.2051 20.9766 19.9492 20.9766 16.2285V6.0918H25.3125V15.4668C25.3125 17.3564 26.3965 18.5283 28.0957 18.543C29.6777 18.5283 31.1719 17.4004 31.1719 15.2324ZM38.877 22V6.0918H43.0664V8.8457H43.2422C43.8135 6.89746 45.293 5.85742 47.0801 5.85742C47.5195 5.85742 48.0762 5.91602 48.457 6.00391V9.87109C48.0469 9.73926 47.2119 9.63672 46.6113 9.63672C44.6484 9.63672 43.1982 10.999 43.2129 12.9473V22H38.877ZM59.7363 6.0918V9.34375H56.748V17.1074C56.7334 18.3818 57.3633 18.6895 58.2422 18.7188C58.6816 18.7188 59.4434 18.6748 59.9707 18.6309V22.0586C59.502 22.1318 58.7256 22.2197 57.6562 22.2051C54.5215 22.2197 52.3828 20.8135 52.4121 17.7227V9.34375H50.2148V6.0918H52.4121V2.2832H56.748V6.0918H59.7363ZM67.1484 0.789062V22H62.8125V0.789062H67.1484ZM77.7246 22.3223C72.8467 22.3076 69.8584 19.1582 69.873 14.1191C69.8584 9.21191 72.8906 5.88672 77.5488 5.88672C81.7236 5.88672 85.0195 8.52344 85.0195 13.9434V15.1738H74.1504C74.1504 17.5762 75.5713 19.0557 77.8125 19.0703C79.292 19.0557 80.3467 18.4111 80.7715 17.459H84.9023C84.2871 20.4033 81.6504 22.3076 77.7246 22.3223ZM74.1504 12.4492H80.918C80.9033 10.5156 79.5703 9.12402 77.6367 9.13867C75.6445 9.12402 74.2383 10.6182 74.1504 12.4492ZM93.6035 22.2637C89.9707 22.2637 87.1289 19.3779 87.1289 14.0605C87.1289 8.61133 90.0879 5.88672 93.6035 5.88672C96.2695 5.88672 97.5439 7.46875 98.1152 8.75781H98.2617V0.789062H102.598V22H98.3203V19.4512H98.1152C97.5146 20.7695 96.1963 22.2637 93.6035 22.2637ZM91.582 14.0312C91.5674 16.8438 92.7539 18.792 94.9512 18.8066C97.1191 18.792 98.3496 16.9023 98.3496 14.0312C98.3496 11.1748 97.1338 9.34375 94.9512 9.34375C92.7393 9.34375 91.5674 11.2627 91.582 14.0312Z" fill="black"/>
</svg>
